<svg version="1.1" id="Шар_1" xmlns="http://www.w3.org/2000/svg" x="0" y="0" viewBox="0 0 175 165" xml:space="preserve"><style>.st0{fill:#fff}</style><path class="st0" d="M109.2 49.3V62h23V49.3h-23zm7.4 10.1c-2.1 0-3.9-1.7-3.9-3.9 0-2.1 1.7-3.9 3.9-3.9s3.9 1.7 3.9 3.9-1.8 3.9-3.9 3.9zm9.1-.2c-2.1 0-3.9-1.7-3.9-3.9 0-2.1 1.7-3.9 3.9-3.9s3.9 1.7 3.9 3.9c-.1 2.1-1.8 3.9-3.9 3.9zm-83.3-9.9V62h16.3c.5-.8 1.1-1.5 1.8-2.1.5-.5 1.1-.9 1.7-1.3 1-.6 2.1-1.1 3.2-1.4v-7.9h-23zm6.9 10.3c-2.1 0-3.9-1.7-3.9-3.9 0-2.1 1.7-3.9 3.9-3.9s3.9 1.7 3.9 3.9c0 2.1-1.7 3.9-3.9 3.9zm9.1-.3c-2.1 0-3.9-1.7-3.9-3.9 0-2.1 1.7-3.8 3.9-3.8 2.1 0 3.9 1.7 3.9 3.8 0 2.2-1.8 3.9-3.9 3.9zm12.8-21.6v19h11v2.9h11.3v-2.9h10.6v-19H71.2zm31 17h-29v-15h28.9v15z"/><path class="st0" d="M100.9 51.7l-.7 1.1h-.4l-1.3-1.7-.5 1.5-.5-.1-1-8.9-.9 9-.5.1-1.1-1.6-.6 1.4-.5-.1-1-8.9-.9 9.1-.4.1-1.1-1.7-.7 1.5h-.5l-.9-8.8-1 8.7-.5.1-1-1.4-.5 1.3-.5-.1-1.1-8.8-.8 9-.4.1-1.1-1.6-.6 1.6h-.5l-1.2-9.3-1 9.2-.4.1-1.2-1.6-.8 1.3-.4-.3.9-1.6h.5l1 1.4 1.1-10.7h.5l1.4 10.4.4-1.2h.4l1 1.4 1-10.6V41h.5l1.2 10.3.3-.8.4-.1.9 1.3 1.3-10.4h.5v.1l1 10.1.6-1.1h.4l.9 1.4 1-10.7h.5l1.2 10.4.5-1h.4l1 1.3 1-10.6h.5l1.2 10.2.3-.9.4-.1 1.4 1.8.5-.7zM80 59.6h15.9v1.5H80zm33-21.9l-2.3-.8.3 5.3c.2.1.3.2.4.4.2.5-.2 1-.9 1.3-.7.3-1.3.1-1.5-.4-.2-.5.2-1 .9-1.3.3-.1.6-.1.8-.1l-.3-5.6.2-.2 2.5.9-.1.5zm10.4 2.5l1.1-4.9-.2-.3-5.4.1-.2.2-1 5.4c-.3-.1-.7-.1-1.1 0-.8.2-1.2.8-1.1 1.3s.9.7 1.7.5c.8-.2 1.2-.8 1.1-1.3v-.3l.6-3.3 4.8-.2-.6 2.5c-.3-.1-.7-.1-1.1 0-.8.2-1.2.8-1.1 1.4.2.5.9.7 1.7.5.8-.2 1.2-.8 1.1-1.4-.2-.1-.2-.2-.3-.2zm-4.5-3.2l.3-1.4 4.9-.1-.3 1.3-4.9.2zm12.7 2.6l-.4.3-1.6-1.8-2.2 4.9c.2.2.2.3.2.5-.1.5-.7.8-1.4.7-.7-.1-1.2-.6-1.2-1 0-.5.7-.8 1.4-.7.3 0 .6.1.8.3l2.3-5.1.3-.1 1.8 2zm-85.5-.2l-2.4-.3 1.4 5.2c.2 0 .4.1.5.3.3.4 0 1.1-.6 1.5-.6.4-1.3.4-1.6 0-.3-.4 0-1.1.6-1.5.3-.2.5-.3.8-.3l-1.5-5.4.2-.3 2.7.4-.1.4zm10.8.3c0-.1-.1-.1-.1-.1l.1-5-.3-.2-5.3 1.3-.2.2.2 5.5c-.3-.1-.7 0-1.1.2-.7.4-1 1.1-.8 1.5.3.5 1 .5 1.7.1s1-1.1.8-1.5c-.1-.1-.1-.3-.1-.3l-.1-3.4 4.7-1.2v2.6c-.3-.1-.7 0-1.1.2-.7.4-1 1.1-.8 1.5.3.5 1 .5 1.7.1s1-1 .7-1.5zm-.6-3.5l-4.7 1.2v-1.5l4.8-1.1-.1 1.4zm8.3 1l-.3.4-2-1.4-1.1 5.2c.2.1.3.3.3.5 0 .5-.5.9-1.2 1-.7.1-1.3-.3-1.4-.8 0-.5.5-.9 1.2-1 .3 0 .6 0 .8.1l1.2-5.4.3-.2 2.2 1.6zm-7.7 30.7v.8H38.5v-5.2h19.3c-.6 1.4-.9 2.9-.9 4.4zm79-4.3v5.2H79V68c0-1.5-.3-3-.9-4.3h57.8zM78.3 77.2c-.1 0-.1 0 0 0-.1 0 0 0 0 0zm-20.8-5.9h-19l-12.1 9.8v3.1h14.9v-5.9h-4.1v-1h4.2c.3-3.2 3-5.7 6.3-5.7h9.8v-.3zm-16.9 4.1l-1.7.1.8-1h1.4l-.5.9zm2.5-2.5l-1.7.1.8-1h1.4l-.5.9zm33.1 1.7c-.1 0-.1 0-.1-.1 0 .1 0 .1.1.1zm59.7-3.3H78.5c-.3 1.1-.8 2-1.5 2.9.2.2.3.5.5.8.8.7 1.4 1.4 2 2.2h22.1v1H80.1c.5.9.8 1.8 1 2.8.2.8.3 1.6.3 2.4v.7h67.2V81l-12.7-9.7zm-52.9 4h-1.7v-.8H83v.8zm.5-2.4h-1.7v-.8h1.7v.8zm3 2.4h-1.7v-.8h1.7v.8zm0-2.4h-1.7v-.8h1.7v.8zm1.8-.9H90v.8h-1.7V72zm1.8 3.3h-1.7v-.8h1.7v.8zm1.4-3.1h1.7v.8h-1.7v-.8zm2.2 3.1H92v-.8h1.7v.8zm1.1-3.1h1.7v.8h-1.7v-.8zm2.5 3.1h-1.7v-.8h1.7v.8zm.9-3.1h1.7v.8h-1.7v-.8zm2.4 3.1h-1.7v-.8h1.7v.8zm34.4.2h-1.6l-.5-1h1.6l.5 1zm-2-3.7l.5 1h-1.6l-.5-1h1.6zm-1.4 3.7H130l-.5-1h1.6l.5 1zm-2-3.7l.5 1h-1.6l-.5-1h1.6zm-1.6 3.7h-1.6l-.5-1h1.6l.5 1zm-2-3.7l.5 1h-1.6l-.5-1h1.6zm-1.3 3.7h-1.6l-.5-1h1.6l.5 1zm-2-3.7l.5 1h-1.6l-.5-1h1.6zm-1.1 3.7H120l-.5-1h1.6l.5 1zm-2-3.7l.5 1h-1.6l-.5-1h1.6zm-1.6 3.7h-1.6l-.5-1h1.6l.5 1zm-2-3.7l.5 1h-1.6l-.5-1h1.6zm-1.1 3.7h-1.6l-.5-1h1.6l.5 1zm-2-3.7l.5 1h-1.6l-.5-1h1.6zm-5.1.1h1.6l.5 1h-1.6l-.5-1zm2 3.6l-.5-1h1.6l.5 1h-1.6zm28.8 2.7h-27v-1h27v1zM50.9 55.7c0 .8-.7 1.5-1.5 1.5s-1.5-.7-1.5-1.5.7-1.5 1.5-1.5 1.5.7 1.5 1.5zm9-.3c0 .8-.7 1.5-1.5 1.5s-1.5-.7-1.5-1.5.7-1.5 1.5-1.5 1.5.7 1.5 1.5zm58.2.2c0 .8-.7 1.5-1.5 1.5s-1.5-.7-1.5-1.5.7-1.5 1.5-1.5c.8-.1 1.5.6 1.5 1.5zm9.1-.3c0 .9-.7 1.5-1.5 1.5s-1.5-.7-1.5-1.5.7-1.5 1.5-1.5 1.5.7 1.5 1.5z"/><path class="st0" d="M78.1 67.9v.8c-.1.9-.3 1.8-.6 2.6s-.6 1.5-1.1 2.2c-1.2-1.2-2.8-1.9-4.5-1.9H58.6c0-.1-.1-.2-.1-.2-.3-.8-.5-1.7-.5-2.6V68c0-1.6.4-3 1-4.3.3-.5.6-1.1.9-1.6 1.3-1.8 3.3-3.2 5.5-3.8.8-.2 1.7-.4 2.6-.4 4 0 7.5 2.3 9.1 5.7.6 1.3 1 2.7 1 4.3zm.7 60.3v1.1c0 .8-.6 1.4-1.4 1.4H48.3c-.8 0-1.4-.6-1.4-1.4v-1.1c0-.8.6-1.4 1.4-1.4h11.1v-15h7.4v15h10.6c.8-.1 1.4.6 1.4 1.4zm1.6-34.7v4.9h4c.7-.3 1.5-.4 2.3-.2l1.7.3c2.2.4 3.6 2.5 3.1 4.7l-3.7 18.2c-.4 2.2-2.5 3.5-4.7 3.1l-1.7-.3c-2.2-.4-3.5-2.5-3.1-4.7l1.6-8.1h2.4c2 0 3.6-1.6 3.6-3.6V106c0-2-1.6-3.7-3.6-3.7h-4.2V77.2h.1c.2.3.5.7.7 1 .5.9.9 1.8 1.2 2.8.2.8.3 1.6.3 2.4v3h1l8.6.8c1.8 0 3.3 1.5 3.3 3.3 0 .9-.4 1.7-1 2.3-.6.6-1.4 1-2.3 1h-8c-.2 0-.5 0-.7-.1-.2 0-.3-.1-.5-.2-.1.2-.2.2-.4 0z"/><path class="st0" d="M85.1 106v1.9c0 1.2-.7 2.1-1.8 2.5-.3.2-.7.3-.9.3h-9.5c-.3.1-.7.1-1.1.1H47.7c-3 0-5.4-2.4-5.4-5.4V77.9c0-.2 0-.4.1-.7.1-.7.3-1.3.6-1.8.2-.3.4-.7.6-1 .5-.6 1.1-1.1 1.8-1.4.3-.1.6-.2 1-.3.4-.1.8-.2 1.3-.2h24.1c.4 0 .9 0 1.3.2.1 0 .3.1.4.1.9.3 1.7.8 2.3 1.5.1.1.2.2.2.3 0 0 0 .1.1.1.1.1.2.3.3.4l.3.6c.2.5.4 1 .5 1.6v26.1h5.2c1.6-.1 2.7 1.1 2.7 2.6z"/></svg>