<?xml version="1.0" encoding="utf-8"?>
<!-- Generator: Adobe Illustrator 25.0.1, SVG Export Plug-In . SVG Version: 6.00 Build 0)  -->
<svg version="1.1" id="Шар_1" xmlns="http://www.w3.org/2000/svg" xmlns:xlink="http://www.w3.org/1999/xlink" x="0px" y="0px"
	 viewBox="0 0 175 165" style="enable-background:new 0 0 175 165;" xml:space="preserve">
<style type="text/css">
	.st0{fill:#FFFFFF;}
</style>
<g>
	<g>
		<g>
			<path class="st0" d="M109.2,49.3V62h23V49.3H109.2z M116.6,59.4c-2.1,0-3.9-1.7-3.9-3.9c0-2.1,1.7-3.9,3.9-3.9s3.9,1.7,3.9,3.9
				C120.5,57.7,118.7,59.4,116.6,59.4z M125.7,59.2c-2.1,0-3.9-1.7-3.9-3.9c0-2.1,1.7-3.9,3.9-3.9s3.9,1.7,3.9,3.9
				C129.5,57.4,127.8,59.2,125.7,59.2z"/>
			<path class="st0" d="M42.4,49.3V62h16.3c0.5-0.8,1.1-1.5,1.8-2.1l0,0c0.5-0.5,1.1-0.9,1.7-1.3c1-0.6,2.1-1.1,3.2-1.4v-7.9H42.4z
				 M49.3,59.6c-2.1,0-3.9-1.7-3.9-3.9c0-2.1,1.7-3.9,3.9-3.9s3.9,1.7,3.9,3.9C53.2,57.8,51.5,59.6,49.3,59.6z M58.4,59.3
				c-2.1,0-3.9-1.7-3.9-3.9c0-2.1,1.7-3.8,3.9-3.8c2.1,0,3.9,1.7,3.9,3.8C62.3,57.6,60.5,59.3,58.4,59.3z"/>
			<path class="st0" d="M71.2,37.7v19h11v2.9h11.3v-2.9h10.6v-19H71.2z M102.2,54.7H73.2v-15h28.9V54.7z"/>
			<polygon class="st0" points="100.9,51.7 100.2,52.8 99.8,52.8 98.5,51.1 98,52.6 97.5,52.5 96.5,43.6 95.6,52.6 95.1,52.7 
				94,51.1 93.4,52.5 92.9,52.4 91.9,43.5 91,52.6 90.6,52.7 89.5,51 88.8,52.5 88.3,52.5 87.4,43.7 86.4,52.4 85.9,52.5 84.9,51.1 
				84.4,52.4 83.9,52.3 82.8,43.5 82,52.5 81.6,52.6 80.5,51 79.9,52.6 79.4,52.6 78.2,43.3 77.2,52.5 76.8,52.6 75.6,51 74.8,52.3 
				74.4,52 75.3,50.4 75.8,50.4 76.8,51.8 77.9,41.1 78.4,41.1 79.8,51.5 80.2,50.3 80.6,50.3 81.6,51.7 82.6,41.1 82.6,41 83.1,41 
				84.3,51.3 84.6,50.5 85,50.4 85.9,51.7 87.2,41.3 87.7,41.3 87.7,41.4 88.7,51.5 89.3,50.4 89.7,50.4 90.6,51.8 91.6,41.1 
				91.6,41.1 92.1,41.1 93.3,51.5 93.8,50.5 94.2,50.5 95.2,51.8 96.2,41.2 96.2,41.2 96.7,41.2 97.9,51.4 98.2,50.5 98.6,50.4 
				100,52.2 100.5,51.5 			"/>
			<rect x="80" y="59.6" class="st0" width="15.9" height="1.5"/>
			<path class="st0" d="M113,37.7l-2.3-0.8l0.3,5.3c0.2,0.1,0.3,0.2,0.4,0.4c0.2,0.5-0.2,1-0.9,1.3c-0.7,0.3-1.3,0.1-1.5-0.4
				c-0.2-0.5,0.2-1,0.9-1.3c0.3-0.1,0.6-0.1,0.8-0.1l-0.3-5.6l0.2-0.2l2.5,0.9L113,37.7z"/>
			<path class="st0" d="M123.4,40.2l1.1-4.9l-0.2-0.3l-5.4,0.1l-0.2,0.2l-1,5.4c-0.3-0.1-0.7-0.1-1.1,0c-0.8,0.2-1.2,0.8-1.1,1.3
				s0.9,0.7,1.7,0.5c0.8-0.2,1.2-0.8,1.1-1.3c0-0.2,0-0.3,0-0.3l0.6-3.3l4.8-0.2l-0.6,2.5c-0.3-0.1-0.7-0.1-1.1,0
				c-0.8,0.2-1.2,0.8-1.1,1.4c0.2,0.5,0.9,0.7,1.7,0.5c0.8-0.2,1.2-0.8,1.1-1.4C123.5,40.3,123.5,40.2,123.4,40.2z M118.9,37
				l0.3-1.4l4.9-0.1l-0.3,1.3L118.9,37z"/>
			<path class="st0" d="M131.6,39.6l-0.4,0.3l-1.6-1.8l-2.2,4.9c0.2,0.2,0.2,0.3,0.2,0.5c-0.1,0.5-0.7,0.8-1.4,0.7
				c-0.7-0.1-1.2-0.6-1.2-1c0-0.5,0.7-0.8,1.4-0.7c0.3,0,0.6,0.1,0.8,0.3l2.3-5.1l0.3-0.1L131.6,39.6z"/>
			<path class="st0" d="M46.1,39.4l-2.4-0.3l1.4,5.2c0.2,0,0.4,0.1,0.5,0.3c0.3,0.4,0,1.1-0.6,1.5c-0.6,0.4-1.3,0.4-1.6,0
				c-0.3-0.4,0-1.1,0.6-1.5c0.3-0.2,0.5-0.3,0.8-0.3l-1.5-5.4l0.2-0.3l2.7,0.4L46.1,39.4z"/>
			<path class="st0" d="M56.9,39.7c0-0.1-0.1-0.1-0.1-0.1l0.1-5l-0.3-0.2l-5.3,1.3l-0.2,0.2l0.2,5.5c-0.3-0.1-0.7,0-1.1,0.2
				c-0.7,0.4-1,1.1-0.8,1.5c0.3,0.5,1,0.5,1.7,0.1c0.7-0.4,1-1.1,0.8-1.5c-0.1-0.1-0.1-0.3-0.1-0.3l-0.1-3.4l4.7-1.2l0,2.6
				c-0.3-0.1-0.7,0-1.1,0.2c-0.7,0.4-1,1.1-0.8,1.5c0.3,0.5,1,0.5,1.7,0.1S57.2,40.2,56.9,39.7z M56.3,36.2l-4.7,1.2l0-1.5l4.8-1.1
				L56.3,36.2z"/>
			<path class="st0" d="M64.6,37.2l-0.3,0.4l-2-1.4l-1.1,5.2c0.2,0.1,0.3,0.3,0.3,0.5c0,0.5-0.5,0.9-1.2,1c-0.7,0.1-1.3-0.3-1.4-0.8
				c0-0.5,0.5-0.9,1.2-1c0.3,0,0.6,0,0.8,0.1l1.2-5.4l0.3-0.2L64.6,37.2z"/>
			<path class="st0" d="M56.9,67.9c0,0.3,0,0.5,0,0.8H38.5v-5.2h19.3C57.2,64.9,56.9,66.4,56.9,67.9z"/>
			<path class="st0" d="M135.9,63.6v5.2H79c0-0.3,0-0.5,0-0.8c0-1.5-0.3-3-0.9-4.3H135.9z"/>
			<g>
				<path class="st0" d="M78.3,77.2L78.3,77.2C78.2,77.2,78.2,77.2,78.3,77.2C78.2,77.2,78.3,77.2,78.3,77.2z"/>
				<path class="st0" d="M57.5,71.3h-19l-12.1,9.8v3.1h14.9v-5.9h-4.1v-1h4.2c0.3-3.2,3-5.7,6.3-5.7h9.8
					C57.5,71.5,57.5,71.4,57.5,71.3z M40.6,75.4l-1.7,0.1l0.8-1l1.4,0L40.6,75.4z M43.1,72.9L41.4,73l0.8-1l1.4,0L43.1,72.9z"/>
				<path class="st0" d="M76.2,74.6C76.2,74.6,76.2,74.6,76.2,74.6c-0.1,0-0.1,0-0.1-0.1C76.1,74.6,76.1,74.6,76.2,74.6z"/>
				<path class="st0" d="M135.9,71.3H78.5c-0.3,1.1-0.8,2-1.5,2.9c0.2,0.2,0.3,0.5,0.5,0.8c0.8,0.7,1.4,1.4,2,2.2h22.1v1H80.1
					c0.5,0.9,0.8,1.8,1,2.8c0.2,0.8,0.3,1.6,0.3,2.4v0.7h67.2v-3.1L135.9,71.3z M83,75.3h-1.7v-0.8H83V75.3z M83.5,72.9h-1.7v-0.8
					h1.7V72.9z M86.5,75.3h-1.7v-0.8h1.7V75.3z M86.5,72.9h-1.7v-0.8h1.7V72.9z M88.3,72h1.7v0.8h-1.7V72z M90.1,75.3h-1.7v-0.8h1.7
					V75.3z M91.5,72.2h1.7v0.8h-1.7V72.2z M93.7,75.3H92v-0.8h1.7V75.3z M94.8,72.2h1.7v0.8h-1.7V72.2z M97.3,75.3h-1.7v-0.8h1.7
					V75.3z M98.2,72.2h1.7v0.8h-1.7V72.2z M100.6,75.3h-1.7v-0.8h1.7V75.3z M135,75.5h-1.6l-0.5-1h1.6L135,75.5z M133,71.8l0.5,1
					h-1.6l-0.5-1H133z M131.6,75.5H130l-0.5-1h1.6L131.6,75.5z M129.6,71.8l0.5,1h-1.6l-0.5-1H129.6z M128,75.5h-1.6l-0.5-1h1.6
					L128,75.5z M126,71.8l0.5,1h-1.6l-0.5-1H126z M124.7,75.5h-1.6l-0.5-1h1.6L124.7,75.5z M122.7,71.8l0.5,1h-1.6l-0.5-1H122.7z
					 M121.6,75.5H120l-0.5-1h1.6L121.6,75.5z M119.6,71.8l0.5,1h-1.6l-0.5-1H119.6z M118,75.5h-1.6l-0.5-1h1.6L118,75.5z M116,71.8
					l0.5,1h-1.6l-0.5-1H116z M114.9,75.5h-1.6l-0.5-1h1.6L114.9,75.5z M112.9,71.8l0.5,1h-1.6l-0.5-1H112.9z M107.8,71.9h1.6l0.5,1
					h-1.6L107.8,71.9z M109.8,75.5l-0.5-1h1.6l0.5,1H109.8z M138.6,78.2h-27v-1h27V78.2z"/>
			</g>
			<g>
				<path class="st0" d="M50.9,55.7c0,0.8-0.7,1.5-1.5,1.5c-0.8,0-1.5-0.7-1.5-1.5c0-0.8,0.7-1.5,1.5-1.5
					C50.2,54.2,50.9,54.9,50.9,55.7z"/>
				<path class="st0" d="M59.9,55.4c0,0.8-0.7,1.5-1.5,1.5c-0.8,0-1.5-0.7-1.5-1.5c0-0.8,0.7-1.5,1.5-1.5
					C59.2,53.9,59.9,54.6,59.9,55.4z"/>
			</g>
			<g>
				<path class="st0" d="M118.1,55.6c0,0.8-0.7,1.5-1.5,1.5c-0.8,0-1.5-0.7-1.5-1.5c0-0.8,0.7-1.5,1.5-1.5
					C117.4,54,118.1,54.7,118.1,55.6z"/>
				<path class="st0" d="M127.2,55.3c0,0.9-0.7,1.5-1.5,1.5c-0.8,0-1.5-0.7-1.5-1.5c0-0.8,0.7-1.5,1.5-1.5
					C126.5,53.8,127.2,54.5,127.2,55.3z"/>
			</g>
		</g>
		<g>
			<path class="st0" d="M78.1,67.9c0,0.3,0,0.5,0,0.8c-0.1,0.9-0.3,1.8-0.6,2.6c-0.3,0.8-0.6,1.5-1.1,2.2c-1.2-1.2-2.8-1.9-4.5-1.9
				H58.6c0-0.1-0.1-0.2-0.1-0.2c-0.3-0.8-0.5-1.7-0.5-2.6c0-0.3,0-0.5,0-0.8c0-1.6,0.4-3,1-4.3c0.3-0.5,0.6-1.1,0.9-1.6
				c1.3-1.8,3.3-3.2,5.5-3.8c0.8-0.2,1.7-0.4,2.6-0.4c4,0,7.5,2.3,9.1,5.7C77.7,64.9,78.1,66.3,78.1,67.9z"/>
			<path class="st0" d="M78.8,128.2v1.1c0,0.8-0.6,1.4-1.4,1.4H48.3c-0.8,0-1.4-0.6-1.4-1.4v-1.1c0-0.8,0.6-1.4,1.4-1.4h11.1v-15
				h7.4v15h10.6C78.2,126.7,78.8,127.4,78.8,128.2z"/>
			<path class="st0" d="M80.4,93.5v4.9l0.5,0l0.5,0l3,0c0.7-0.3,1.5-0.4,2.3-0.2l1.7,0.3c2.2,0.4,3.6,2.5,3.1,4.7l-3.7,18.2
				c-0.4,2.2-2.5,3.5-4.7,3.1l-1.7-0.3c-2.2-0.4-3.5-2.5-3.1-4.7l1.6-8.1h2.4c2,0,3.6-1.6,3.6-3.6V106c0-2-1.6-3.7-3.6-3.7h-0.6v0
				h-2.1c0,0,0,0,0,0h-1.5V77.9c0-0.2,0-0.4,0-0.7h0.1c0.2,0.3,0.5,0.7,0.7,1c0.5,0.9,0.9,1.8,1.2,2.8c0.2,0.8,0.3,1.6,0.3,2.4v3
				c0,0,0.1,0,0.1,0l0.4,0l0.5,0l8.6,0.8c1.8,0,3.3,1.5,3.3,3.3c0,0.9-0.4,1.7-1,2.3c-0.6,0.6-1.4,1-2.3,1h-8c-0.2,0-0.5,0-0.7-0.1
				c-0.2,0-0.3-0.1-0.5-0.2C80.7,93.7,80.6,93.7,80.4,93.5z"/>
			<path class="st0" d="M85.1,106v1.9c0,1.2-0.7,2.1-1.8,2.5c0,0,0,0,0,0c-0.3,0.2-0.7,0.3-0.9,0.3h-9.5c-0.3,0.1-0.7,0.1-1.1,0.1
				H47.7c-3,0-5.4-2.4-5.4-5.4V77.9c0-0.2,0-0.4,0.1-0.7c0.1-0.7,0.3-1.3,0.6-1.8c0.2-0.3,0.4-0.7,0.6-1c0.5-0.6,1.1-1.1,1.8-1.4
				l0,0h0c0.3-0.1,0.6-0.2,1-0.3c0.4-0.1,0.8-0.2,1.3-0.2h24.1c0.4,0,0.9,0,1.3,0.2c0.1,0,0.3,0.1,0.4,0.1c0.9,0.3,1.7,0.8,2.3,1.5
				c0.1,0.1,0.2,0.2,0.2,0.3c0,0,0,0.1,0.1,0.1c0.1,0.1,0.2,0.3,0.3,0.4c0.1,0.2,0.2,0.4,0.3,0.6c0.2,0.5,0.4,1,0.5,1.6
				c0,0.2,0,0.4,0,0.7v25.4h5.2C84,103.3,85.1,104.5,85.1,106z"/>
		</g>
	</g>
</g>
</svg>
